<?xml version="1.0" encoding="iso-8859-1"?>
<!-- Generator: Adobe Illustrator 16.0.0, SVG Export Plug-In . SVG Version: 6.00 Build 0)  -->
<!DOCTYPE svg PUBLIC "-//W3C//DTD SVG 1.1//EN" "http://www.w3.org/Graphics/SVG/1.1/DTD/svg11.dtd">
<svg version="1.1" id="Capa_1" xmlns="http://www.w3.org/2000/svg" xmlns:xlink="http://www.w3.org/1999/xlink" x="0px" y="0px"
	 width="34.301px" height="34.301px" viewBox="0 0 34.301 34.301" style="enable-background:new 0 0 34.301 34.301;"
	 xml:space="preserve">
<g>
	<g>
		<ellipse cx="16.917" cy="11.372" rx="1.868" ry="2.103"/>
		<path d="M19.602,16.432c1.012-0.506,7.746-3.581,9.07-5.761c0,0-3.973,3.504-11.755,3.504c-7.785,0-11.756-3.504-11.756-3.504
			c1.322,2.18,8.058,5.255,9.07,5.761c-0.468,2.218,0.739,1.868,0.816,2.841c0.078,0.975-0.934,1.092-1.011,2.842
			c-0.079,1.752,2.41,7.668,2.879,12.179v0.007c0-0.002,0-0.002,0.001-0.003v-0.004c0.469-4.511,2.958-10.427,2.879-12.179
			c-0.078-1.75-1.09-1.867-1.012-2.842C18.861,18.3,20.068,18.65,19.602,16.432z"/>
		<path d="M16.829,5.17c0-1.613,0.324-2.92,0.324-2.92s0.323,1.307,0.323,2.92c0,0.342-0.017,0.666-0.04,0.971
			c0.445-0.513,1.254-1.622,1.254-2.916C18.689,1.444,17.152,0,17.152,0s-1.541,1.443-1.541,3.225c0,1.294,0.812,2.403,1.254,2.916
			C16.843,5.836,16.829,5.511,16.829,5.17z"/>
		<path d="M12.763,7.364c-0.109-0.16-0.221-0.331-0.328-0.521c-0.512-0.885-0.747-1.704-0.747-1.704s0.592,0.615,1.103,1.499
			c0.107,0.188,0.201,0.37,0.284,0.545c0.082-0.422,0.176-1.287-0.234-1.998c-0.564-0.977-1.865-1.281-1.865-1.281
			s-0.389,1.28,0.175,2.257C11.562,6.872,12.358,7.222,12.763,7.364z"/>
		<path d="M21.539,21.841c0.109,0.16,0.221,0.332,0.328,0.521c0.512,0.885,0.748,1.705,0.748,1.705s-0.594-0.615-1.104-1.5
			c-0.107-0.188-0.203-0.369-0.285-0.545c-0.082,0.424-0.176,1.287,0.236,1.998c0.562,0.978,1.865,1.28,1.865,1.28
			s0.387-1.278-0.178-2.256C22.74,22.334,21.945,21.982,21.539,21.841z"/>
		<path d="M8.688,14.421c-0.326-0.28-1.028-0.794-1.848-0.795c-1.13,0.001-2.044,0.976-2.044,0.976s0.915,0.976,2.042,0.976
			c0.821,0,1.523-0.514,1.85-0.795c-0.192,0.016-0.397,0.025-0.614,0.025c-1.021,0-1.851-0.206-1.851-0.206s0.829-0.205,1.851-0.206
			C8.292,14.397,8.495,14.407,8.688,14.421z"/>
		<path d="M25.613,14.783c0.326,0.282,1.027,0.795,1.848,0.795c1.129,0,2.043-0.975,2.043-0.975s-0.914-0.976-2.043-0.976
			c-0.82,0-1.521,0.513-1.848,0.794c0.193-0.014,0.396-0.023,0.613-0.023c1.023,0,1.854,0.205,1.854,0.205s-0.83,0.206-1.854,0.205
			C26.01,14.808,25.807,14.798,25.613,14.783z"/>
		<path d="M12.79,22.566c-0.509,0.885-1.102,1.498-1.102,1.498s0.235-0.818,0.746-1.705c0.109-0.188,0.221-0.358,0.33-0.519
			c-0.407,0.142-1.202,0.492-1.613,1.203c-0.563,0.978-0.177,2.256-0.177,2.256s1.301-0.306,1.865-1.28
			c0.41-0.711,0.317-1.576,0.236-1.998C12.993,22.195,12.898,22.379,12.79,22.566z"/>
		<path d="M21.512,6.638c0.51-0.885,1.102-1.501,1.102-1.501s-0.234,0.821-0.746,1.706c-0.107,0.188-0.219,0.359-0.328,0.52
			c0.406-0.141,1.201-0.492,1.611-1.202c0.562-0.977,0.178-2.258,0.178-2.258s-1.303,0.306-1.865,1.282
			c-0.41,0.711-0.318,1.574-0.236,1.998C21.311,7.007,21.404,6.826,21.512,6.638z"/>
		<path d="M6.525,10.246c1.123,0.646,2.488,0.5,3.154,0.372c-0.275-0.132-0.564-0.28-0.859-0.45C7.423,9.36,6.451,8.426,6.451,8.426
			s1.297,0.373,2.692,1.18c0.297,0.171,0.567,0.348,0.821,0.52C9.742,9.485,9.188,8.229,8.065,7.581
			C6.524,6.69,4.502,7.302,4.502,7.302S4.984,9.355,6.525,10.246z"/>
		<path d="M27.775,18.96c-1.123-0.647-2.486-0.501-3.152-0.372c0.273,0.133,0.564,0.279,0.857,0.451
			c1.396,0.807,2.369,1.74,2.369,1.74s-1.295-0.373-2.693-1.18c-0.295-0.171-0.566-0.347-0.818-0.52
			c0.221,0.64,0.775,1.896,1.896,2.544c1.543,0.892,3.564,0.28,3.564,0.28S29.316,19.85,27.775,18.96z"/>
		<path d="M6.451,20.779c0,0,0.972-0.937,2.368-1.742c0.297-0.172,0.585-0.317,0.86-0.451c-0.666-0.127-2.032-0.275-3.153,0.373
			c-1.543,0.891-2.023,2.945-2.023,2.945s2.021,0.609,3.563-0.279c1.122-0.648,1.677-1.904,1.898-2.545
			c-0.253,0.172-0.524,0.348-0.819,0.52C7.749,20.404,6.451,20.779,6.451,20.779z"/>
		<path d="M27.85,8.425c0,0-0.971,0.934-2.367,1.741c-0.295,0.171-0.586,0.319-0.859,0.45c0.666,0.129,2.031,0.275,3.15-0.371
			C29.318,9.353,29.797,7.3,29.797,7.3s-2.02-0.61-3.562,0.279c-1.123,0.647-1.678,1.903-1.896,2.543
			c0.252-0.17,0.521-0.347,0.818-0.518C26.555,8.798,27.85,8.425,27.85,8.425z"/>
	</g>
</g>
<g>
</g>
<g>
</g>
<g>
</g>
<g>
</g>
<g>
</g>
<g>
</g>
<g>
</g>
<g>
</g>
<g>
</g>
<g>
</g>
<g>
</g>
<g>
</g>
<g>
</g>
<g>
</g>
<g>
</g>
</svg>
